<mxfile host="65bd71144e">
    <diagram id="XSskB2K4HeWHM3tppwOC" name="Page-1">
        <mxGraphModel dx="2026" dy="1147" grid="1" gridSize="10" guides="1" tooltips="1" connect="1" arrows="1" fold="1" page="1" pageScale="1" pageWidth="850" pageHeight="1100" math="0" shadow="0">
            <root>
                <mxCell id="0"/>
                <mxCell id="1" parent="0"/>
                <mxCell id="14" style="edgeStyle=none;html=1;exitX=0.5;exitY=1;exitDx=0;exitDy=0;entryX=0.5;entryY=0;entryDx=0;entryDy=0;fontColor=#000000;" edge="1" parent="1" source="5" target="12">
                    <mxGeometry relative="1" as="geometry"/>
                </mxCell>
                <mxCell id="5" value="Yelper.FrontEnd" style="rounded=1;whiteSpace=wrap;html=1;fillColor=#f5f5f5;fontColor=#333333;strokeColor=#666666;fontStyle=1" vertex="1" parent="1">
                    <mxGeometry x="237.5" y="510" width="120" height="60" as="geometry"/>
                </mxCell>
                <mxCell id="29" style="edgeStyle=none;html=1;exitX=0.5;exitY=0;exitDx=0;exitDy=0;entryX=0.5;entryY=1;entryDx=0;entryDy=0;fontColor=#000000;" edge="1" parent="1" source="6" target="25">
                    <mxGeometry relative="1" as="geometry"/>
                </mxCell>
                <mxCell id="6" value="Yelper.Stats" style="rounded=1;whiteSpace=wrap;html=1;fontStyle=1;fillColor=#f5f5f5;fontColor=#333333;strokeColor=#666666;" vertex="1" parent="1">
                    <mxGeometry x="590" y="380" width="120" height="60" as="geometry"/>
                </mxCell>
                <mxCell id="8" value="" style="group" vertex="1" connectable="0" parent="1">
                    <mxGeometry x="50" y="220" width="495" height="230" as="geometry"/>
                </mxCell>
                <mxCell id="7" value="" style="rounded=0;whiteSpace=wrap;html=1;fillColor=#fff2cc;strokeColor=#d6b656;" vertex="1" parent="8">
                    <mxGeometry width="495" height="230.00000000000003" as="geometry"/>
                </mxCell>
                <mxCell id="26" style="edgeStyle=none;html=1;exitX=0.5;exitY=0;exitDx=0;exitDy=0;entryX=0.5;entryY=1;entryDx=0;entryDy=0;fontColor=#000000;fillColor=#f5f5f5;strokeColor=#666666;" edge="1" parent="8" source="2" target="15">
                    <mxGeometry relative="1" as="geometry"/>
                </mxCell>
                <mxCell id="2" value="Yelper.Identity" style="rounded=1;whiteSpace=wrap;html=1;fillColor=#f5f5f5;strokeColor=#666666;fontColor=#333333;fontStyle=1" vertex="1" parent="8">
                    <mxGeometry x="42.5" y="160" width="120" height="56.47" as="geometry"/>
                </mxCell>
                <mxCell id="27" style="edgeStyle=none;html=1;exitX=0.5;exitY=0;exitDx=0;exitDy=0;entryX=0.5;entryY=1;entryDx=0;entryDy=0;fontColor=#000000;fillColor=#f5f5f5;strokeColor=#666666;" edge="1" parent="8" source="3" target="23">
                    <mxGeometry relative="1" as="geometry"/>
                </mxCell>
                <mxCell id="3" value="Yelper.Writer" style="rounded=1;whiteSpace=wrap;html=1;fillColor=#f5f5f5;strokeColor=#666666;fontColor=#333333;fontStyle=1" vertex="1" parent="8">
                    <mxGeometry x="187.5" y="160" width="120" height="56.47" as="geometry"/>
                </mxCell>
                <mxCell id="28" style="edgeStyle=none;html=1;exitX=0.5;exitY=0;exitDx=0;exitDy=0;entryX=0.5;entryY=1;entryDx=0;entryDy=0;fontColor=#000000;fillColor=#f5f5f5;strokeColor=#666666;" edge="1" parent="8" source="4" target="24">
                    <mxGeometry relative="1" as="geometry"/>
                </mxCell>
                <mxCell id="4" value="Yelper.Reader" style="rounded=1;whiteSpace=wrap;html=1;fillColor=#f5f5f5;strokeColor=#666666;fontColor=#333333;fontStyle=1" vertex="1" parent="8">
                    <mxGeometry x="342.5" y="160" width="120" height="56.47" as="geometry"/>
                </mxCell>
                <mxCell id="9" value="Microservices Core" style="text;html=1;fontSize=24;fontStyle=1;verticalAlign=middle;align=center;fontColor=#000000;" vertex="1" parent="8">
                    <mxGeometry x="117.5" width="260" height="54.117647058823536" as="geometry"/>
                </mxCell>
                <mxCell id="15" value="&lt;span style=&quot;background-color: initial;&quot;&gt;- .Net Core&lt;/span&gt;&lt;br&gt;&lt;span style=&quot;background-color: initial;&quot;&gt;- GraphQL (Neo4j ?)&lt;/span&gt;&lt;br&gt;&lt;span style=&quot;background-color: initial;&quot;&gt;- MSSQL&lt;/span&gt;&lt;br&gt;&lt;span style=&quot;background-color: initial;&quot;&gt;- Logs&lt;/span&gt;" style="rounded=0;whiteSpace=wrap;html=1;fillColor=#e1d5e7;strokeColor=#9673a6;fontColor=#000000;align=left;" vertex="1" parent="8">
                    <mxGeometry x="42.5" y="54.12" width="120" height="71.76" as="geometry"/>
                </mxCell>
                <mxCell id="23" value="&lt;span style=&quot;background-color: initial;&quot;&gt;- .Net Core&lt;/span&gt;&lt;br&gt;&lt;span style=&quot;background-color: initial;&quot;&gt;- MSSQL&lt;/span&gt;&lt;br&gt;&lt;span style=&quot;background-color: initial;&quot;&gt;- Logs&lt;/span&gt;" style="rounded=0;whiteSpace=wrap;html=1;fillColor=#e1d5e7;strokeColor=#9673a6;fontColor=#000000;align=left;" vertex="1" parent="8">
                    <mxGeometry x="187.5" y="54.120000000000005" width="120" height="71.76" as="geometry"/>
                </mxCell>
                <mxCell id="24" value="&lt;span style=&quot;background-color: initial;&quot;&gt;- .Net Core&lt;/span&gt;&lt;br&gt;&lt;span style=&quot;background-color: initial;&quot;&gt;- Redis&lt;/span&gt;" style="rounded=0;whiteSpace=wrap;html=1;fillColor=#e1d5e7;strokeColor=#9673a6;fontColor=#000000;align=left;" vertex="1" parent="8">
                    <mxGeometry x="342.5" y="54.120000000000005" width="120" height="71.76" as="geometry"/>
                </mxCell>
                <mxCell id="32" style="edgeStyle=none;html=1;exitX=1;exitY=0.5;exitDx=0;exitDy=0;exitPerimeter=0;entryX=0.5;entryY=1;entryDx=0;entryDy=0;fontColor=#000000;" edge="1" parent="1" source="10" target="30">
                    <mxGeometry relative="1" as="geometry"/>
                </mxCell>
                <mxCell id="10" value="Message Broadcaster" style="shape=cylinder3;whiteSpace=wrap;html=1;boundedLbl=1;backgroundOutline=1;size=15;direction=north;fillColor=#d5e8d4;strokeColor=#82b366;fontColor=#000000;fontStyle=1" vertex="1" parent="1">
                    <mxGeometry x="50" y="130" width="670" height="60" as="geometry"/>
                </mxCell>
                <mxCell id="12" value="- Angular" style="rounded=0;whiteSpace=wrap;html=1;fillColor=#e1d5e7;strokeColor=#9673a6;fontColor=#000000;align=left;" vertex="1" parent="1">
                    <mxGeometry x="237.5" y="600" width="120" height="60" as="geometry"/>
                </mxCell>
                <mxCell id="25" value="- Node.Js (?)" style="rounded=0;whiteSpace=wrap;html=1;fillColor=#e1d5e7;strokeColor=#9673a6;fontColor=#000000;align=left;" vertex="1" parent="1">
                    <mxGeometry x="590" y="280" width="120" height="71.76" as="geometry"/>
                </mxCell>
                <mxCell id="30" value="- RabbitMQ &lt;br&gt;&amp;nbsp;(or EventHub)" style="rounded=0;whiteSpace=wrap;html=1;fillColor=#e1d5e7;strokeColor=#9673a6;fontColor=#000000;align=left;" vertex="1" parent="1">
                    <mxGeometry x="325" y="20" width="120" height="71.76" as="geometry"/>
                </mxCell>
                <mxCell id="31" value="&lt;b&gt;Tecnlogies Backlog:&lt;/b&gt;&lt;br&gt;&lt;ul&gt;&lt;li style=&quot;&quot;&gt;Cosmos DB&lt;/li&gt;&lt;li style=&quot;&quot;&gt;Serilog&lt;/li&gt;&lt;li style=&quot;&quot;&gt;Kafka / EventHub&lt;/li&gt;&lt;li style=&quot;&quot;&gt;Aspire&lt;/li&gt;&lt;li style=&quot;&quot;&gt;Neo4j&lt;/li&gt;&lt;/ul&gt;&lt;div&gt;&lt;b&gt;Azure:&lt;/b&gt;&lt;/div&gt;&lt;div&gt;&lt;ul&gt;&lt;li&gt;NGINX&lt;/li&gt;&lt;li&gt;Aspire&lt;/li&gt;&lt;li&gt;Kuberneties&lt;/li&gt;&lt;li&gt;Azure Load Testing&lt;/li&gt;&lt;li&gt;Docker&lt;/li&gt;&lt;/ul&gt;&lt;/div&gt;" style="rounded=0;whiteSpace=wrap;html=1;fillColor=#e51400;strokeColor=#B20000;fontColor=#ffffff;align=left;" vertex="1" parent="1">
                    <mxGeometry x="600" y="570" width="240" height="300" as="geometry"/>
                </mxCell>
            </root>
        </mxGraphModel>
    </diagram>
</mxfile>